<?xml version="1.0" encoding="UTF-8" standalone="no"?>
<!-- Created with Inkscape (http://www.inkscape.org/) -->

<svg
   width="600"
   height="600"
   viewBox="0 0 158.75001 158.75"
   version="1.1"
   id="svg5"
   xml:space="preserve"
   inkscape:version="1.2.2 (b0a8486541, 2022-12-01)"
   sodipodi:docname="GopherCucumber.svg"
   xmlns:inkscape="http://www.inkscape.org/namespaces/inkscape"
   xmlns:sodipodi="http://sodipodi.sourceforge.net/DTD/sodipodi-0.dtd"
   xmlns="http://www.w3.org/2000/svg"
   xmlns:svg="http://www.w3.org/2000/svg"><sodipodi:namedview
     id="namedview7"
     pagecolor="#ffffff"
     bordercolor="#666666"
     borderopacity="1.0"
     inkscape:showpageshadow="2"
     inkscape:pageopacity="0.0"
     inkscape:pagecheckerboard="0"
     inkscape:deskcolor="#d1d1d1"
     inkscape:document-units="mm"
     showgrid="false"
     inkscape:zoom="0.72070006"
     inkscape:cx="546.69067"
     inkscape:cy="156.79199"
     inkscape:window-width="1920"
     inkscape:window-height="1043"
     inkscape:window-x="0"
     inkscape:window-y="0"
     inkscape:window-maximized="1"
     inkscape:current-layer="layer1" /><defs
     id="defs2" /><g
     inkscape:label="Ebene 1"
     inkscape:groupmode="layer"
     id="layer1"
     transform="translate(-30.753791,-24.495662)"><path
       id="path19037"
       style="fill:#7bafbd;fill-opacity:1;stroke-width:0.185522"
       d="M 117.82806 30.688566 C 105.52361 30.763925 94.370078 33.680836 86.352981 38.956795 C 80.167674 43.027277 75.631914 48.227746 72.90729 54.372908 C 69.045807 63.082178 68.060266 76.317106 69.838744 95.588997 C 70.738699 105.34107 70.774829 109.291 70.047 118.50129 C 69.310435 127.82224 69.360875 133.80862 70.22425 139.52172 C 71.52783 148.14763 74.652792 154.78039 79.788524 159.82022 C 84.481246 164.42529 89.521195 166.99065 97.762621 168.97005 C 101.95963 169.97808 108.2925 170.92855 112.32607 171.15596 C 114.89838 171.30098 122.68183 171.26314 124.94132 171.09447 C 142.69285 169.76955 153.8607 164.62493 160.71743 154.61382 C 161.90849 152.87484 163.53614 149.76832 164.34977 147.68091 C 165.64753 144.35141 166.66295 139.49464 167.17234 134.17786 C 167.60755 129.63523 167.43579 120.53348 166.76823 112.75022 C 166.14341 105.46529 166.08896 99.416487 166.57961 91.786128 C 167.15436 82.847936 167.00312 72.417206 166.20857 66.184073 C 165.48232 60.486604 164.04726 55.510301 161.91064 51.243383 C 163.15813 50.866403 165.36318 49.208626 165.72901 48.80994 C 168.30352 46.525133 170.10099 43.010896 169.45954 39.512316 C 168.99366 36.589928 166.2864 34.241461 163.31986 34.240804 C 163.08626 34.224834 162.85145 34.253129 162.61758 34.254239 C 159.83507 34.454807 155.14001 38.327318 152.84143 40.225451 C 145.14437 34.398843 133.82808 31.043337 120.30336 30.711303 C 119.47342 30.690928 118.64836 30.683542 117.82806 30.688566 z M 162.8248 41.026953 C 163.58229 41.235473 163.60101 42.353479 162.94986 42.730725 C 162.37914 43.257695 159.73889 45.019336 158.63746 45.96877 C 158.46841 45.746722 158.30122 45.523006 158.12689 45.306278 C 157.95143 45.088138 157.76884 44.87403 157.58584 44.660323 C 159.07535 43.480658 161.7254 41.051318 162.8248 41.026953 z " /><path
       id="path23457"
       style="fill:#41743e;fill-opacity:1;stroke-width:0.185522"
       d="m 49.805285,62.775784 c -1.652935,0.08234 -2.956667,1.736346 -2.733778,3.364046 -0.01106,1.497406 0.278517,3.293664 -0.955871,4.424321 -1.596256,1.451107 -3.26602,2.90978 -4.257904,4.869189 -1.888481,3.613882 -1.984843,7.812518 -2.010534,11.79943 0.09344,7.476784 1.399675,14.97932 4.135601,21.95095 1.776122,4.42223 4.324806,8.79182 8.359596,11.50222 1.506917,0.98126 3.279405,1.65715 5.071241,1.72318 2.308823,-0.2211 4.648438,-1.31449 5.850634,-3.37553 1.545962,-2.54781 1.269109,-5.71539 0.520538,-8.47608 -1.503655,-6.12752 -3.76467,-12.030301 -4.587811,-18.272763 -0.801547,-4.98231 -0.828979,-10.099982 -2.190257,-14.982953 -0.670192,-2.481506 -2.260523,-4.59255 -4.187436,-6.249788 -0.65239,-0.523879 -1.1243,-1.276348 -0.986903,-2.144111 -0.0725,-1.652114 1.136593,-3.291666 0.401274,-4.90928 -0.432848,-0.877113 -1.500369,-1.261717 -2.42839,-1.222831 z" /><path
       id="path19211"
       style="fill:#7aafbd;fill-opacity:1;stroke-width:0.185522"
       d="M 70.787523 35.793164 C 70.453028 35.790516 70.117838 35.799112 69.785517 35.807116 C 68.092878 35.802716 66.560738 36.734951 65.517044 38.021451 C 63.703124 40.056409 63.600721 43.135764 64.720193 45.531587 C 65.9006 48.202069 68.033072 50.413726 70.551362 51.859883 C 71.206859 52.253364 74.350916 53.678685 74.517011 53.124405 C 75.312449 51.585858 76.533179 49.43216 77.208837 47.833772 C 75.954204 47.13398 71.645338 45.220413 70.785973 44.0123 C 70.601031 43.514918 70.816053 42.817507 71.461384 42.926062 C 73.008204 43.324746 77.087039 46.075747 78.443387 46.86949 C 79.594806 45.27532 81.180357 44.867823 82.519624 43.436625 C 80.505004 41.385772 75.242384 36.825803 72.44582 35.953361 C 71.901577 35.832841 71.345015 35.797576 70.787523 35.793164 z " /><path
       style="fill:#5c9347;fill-opacity:1;stroke-width:0.185522"
       d="m 56.813613,115.52234 c 0.76756,-0.53763 0.57115,-1.52471 -0.90281,-4.53708 -2.23666,-4.57111 -3.19813,-6.97932 -4.22103,-10.57246 -1.49243,-5.242502 -1.76528,-7.993016 -1.78006,-17.944108 l -0.0119,-8.018665 -0.41342,-0.413438 c -0.34023,-0.340253 -0.50108,-0.38222 -0.90866,-0.237075 -0.27238,0.097 -0.66488,0.404214 -0.87221,0.6827 -0.33284,0.447079 -0.39117,0.892187 -0.49839,3.803206 -0.22287,6.051075 0.27493,15.142761 1.00964,18.439937 1.45468,6.528143 2.96725,10.868583 5.42271,15.560863 1.84729,3.53008 2.21767,3.90745 3.17614,3.23612 z"
       id="path19077" /><path
       id="path6852"
       style="fill:#ffffff;stroke-width:0.185522"
       d="m 138.92052,45.226956 c -5.03748,0.233057 -9.97368,2.798831 -12.80624,7.014121 -4.28753,6.177539 -3.91539,15.282281 1.19121,20.884192 2.7509,3.035957 6.76082,4.718726 10.77471,5.214223 4.89337,0.409325 10.04535,-1.098529 13.58683,-4.586597 3.34308,-3.215599 5.0643,-7.949916 4.74068,-12.561949 -0.10966,-4.658612 -2.05029,-9.379975 -5.73748,-12.333782 -2.73524,-2.202969 -6.17565,-3.588886 -9.70848,-3.634415 -0.67996,-0.03635 -1.36109,-0.02825 -2.04123,0.0042 z m -48.068359,0.669922 c -5.145659,0.149261 -10.027434,3.111008 -12.707345,7.47783 -2.675631,4.28536 -3.609918,9.737014 -2.045964,14.591247 1.057428,3.542196 3.273281,6.841115 6.54205,8.680252 2.327147,1.431021 5.031679,2.276725 7.778446,2.188606 2.670761,0.08583 5.3866,-0.343653 7.772085,-1.594242 3.879217,-1.898191 6.803957,-5.439025 8.252527,-9.476506 0.98367,-2.621677 0.73782,-5.486356 0.6914,-8.230469 -0.0964,-2.575448 -1.28112,-4.958467 -2.62973,-7.097371 -2.79747,-4.232579 -7.889514,-6.784527 -12.95142,-6.557138 -0.234017,0.0059 -0.468033,0.01186 -0.702049,0.01779 z" /><path
       id="path6846"
       style="fill:#ffffff;stroke-width:0.185522"
       d="m 113.93809,85.982815 c -2.02016,0.510339 -4.07036,0.897936 -6.14843,1.072266 0.07,2.450568 0.13477,5.090426 1.49219,7.224609 0.92033,1.130069 2.59065,1.400593 3.96093,1.15625 1.12636,-0.193083 1.41636,-1.454536 1.4116,-2.424395 0.0832,-2.390274 -0.0108,-4.783906 -0.0932,-7.173261 -0.20768,0.04818 -0.41536,0.09635 -0.62305,0.144531 z m 1.85547,0.34375 c -0.22277,1.722218 -0.0647,3.488464 -0.0669,5.226896 0.10881,0.972237 -0.10239,2.041773 0.33645,2.941073 0.94324,1.298376 2.88402,1.168659 4.1875,0.539062 1.6547,-0.920633 2.11544,-2.961189 2.40617,-4.687255 0.16737,-1.107425 0.20832,-2.228943 0.30477,-3.343995 -2.35501,-0.17944 -4.68148,-0.640132 -7.01953,-1.111328 -0.0495,0.145183 -0.099,0.290365 -0.14844,0.435547 z" /><path
       style="fill:#96c4cf;fill-opacity:1;stroke-width:0.185522"
       d="m 121.44335,166.0842 c 8.89378,-0.87485 15.95879,-4.25439 20.06737,-9.59921 4.10995,-5.34658 5.93751,-12.08903 5.34465,-19.71812 -0.53021,-6.82284 -2.29337,-11.96573 -5.62225,-16.3993 -4.53069,-6.03418 -10.13715,-9.20011 -18.79612,-10.61403 -1.56205,-0.25507 -3.10695,-0.33404 -6.58603,-0.33666 -4.96819,-0.004 -6.76846,0.19952 -10.68783,1.20667 -9.735906,2.5018 -16.742875,10.2689 -18.632824,20.65413 -1.57379,8.64795 -0.12631,17.47397 3.849363,23.47151 4.320321,6.51747 12.323021,10.5552 22.595691,11.40056 1.77485,0.14606 6.70475,0.1079 8.46798,-0.0656 z"
       id="path6840" /><path
       id="path6832"
       style="fill:#e9c1a1;fill-opacity:0.99607801;stroke-width:0.185522"
       d="m 83.635364,166.64883 c -2.222947,1.91344 -4.392049,4.19405 -5.124931,7.11978 -0.435889,1.43678 0.396484,3.05888 1.81829,3.54428 0.615775,0.61092 0.724945,-0.45869 1.04719,-0.8236 0.572603,-1.02162 1.151598,-2.08153 2.040701,-2.86585 -0.0229,1.35354 -0.828596,2.50797 -1.164063,3.78515 0.387787,0.83574 1.449443,0.3963 2.15625,0.32422 2.090508,-0.39758 3.900596,-1.70059 5.40625,-3.14844 0.990681,-1.14942 2.021092,-2.30048 2.769531,-3.625 0.362467,-0.60175 -0.511538,-0.86172 -0.930321,-1.05769 -2.657731,-0.99366 -5.231449,-2.19249 -7.749366,-3.49895 -0.08984,0.082 -0.179688,0.16407 -0.269531,0.2461 z m 68.238276,-0.15235 c -2.69328,1.34363 -5.36643,2.7917 -8.24805,3.69336 -0.75037,-0.044 -0.80328,0.88447 -0.44033,1.35143 1.18762,1.86641 2.74701,3.53334 4.57927,4.77977 1.44524,0.84078 3.08981,1.5129 4.78089,1.52499 0.6644,0.009 0.9538,-0.73588 0.59493,-1.24585 -0.39715,-1.03954 -1.1226,-2.03199 -1.08702,-3.18377 0.95087,0.80787 1.60162,1.93466 2.24414,2.99609 0.13701,0.6801 0.8742,1.13883 1.51367,0.75 0.91672,-0.48009 1.78738,-1.36908 1.65055,-2.48967 0.0702,-2.61235 -1.78086,-4.73657 -3.4737,-6.51566 -0.58817,-0.61223 -1.1773,-1.22354 -1.76474,-1.83647 -0.11654,0.0586 -0.23307,0.11719 -0.34961,0.17578 z m 17.06445,-58.29297 c 0.0969,3.31464 0.36986,6.6233 0.54688,9.93555 1.70329,1.54428 3.35914,3.18135 5.25586,4.48242 1.39843,0.59723 3.2514,0.94908 4.47336,-0.19735 1.16887,-1.09932 1.23017,-2.95731 0.45597,-4.30001 -1.66704,-3.20063 -4.26923,-5.80769 -6.97971,-8.14173 -1.20262,-1.00543 -2.49345,-1.895 -3.75626,-2.82184 0.001,0.34765 0.003,0.69531 0.004,1.04296 z M 63.508411,101.43594 c -0.663045,-0.0727 -0.445882,0.62294 -0.355469,1.03125 0.849011,2.55186 1.468805,5.17415 2.269531,7.74023 0.731272,0.41505 1.554799,0.63723 2.365234,0.8418 0.507996,-1.10496 0.267523,-2.37524 0.3526,-3.55779 0.01093,-1.47158 0.0019,-2.94325 0.0048,-4.41487 -1.489979,-0.61151 -2.960347,-1.34417 -4.546875,-1.6621 z M 121.10606,74.635159 c -0.63962,1.727562 -2.30558,2.798334 -4.03832,3.196771 -2.22881,0.496562 -4.68391,0.558744 -6.80645,-0.382071 -1.08297,-0.514502 -2.08765,-1.380784 -2.40913,-2.562747 -0.32369,-0.532041 -0.80614,-0.11603 -1.23527,0.04594 -2.3502,0.912022 -4.58068,2.816018 -4.97451,5.423557 -0.28718,1.551129 0.44538,3.225123 1.87088,3.951108 2.49457,1.440521 5.52886,0.990637 8.22066,0.472181 2.00358,-0.490892 4.10814,-0.715497 6.13311,-0.206636 2.43135,0.450463 4.97156,0.842163 7.42263,0.33143 1.94361,-0.497549 3.75732,-2.175744 3.69922,-4.298828 -0.13856,-1.984307 -1.49681,-3.678257 -2.9961,-4.880859 -1.32971,-1.067537 -3.0861,-1.250628 -4.7207,-1.417969 -0.0553,0.109375 -0.11068,0.21875 -0.16602,0.328125 z" /><path
       id="path368"
       style="fill:#000000;stroke-width:0.185522"
       d="m 140.04769,43.113504 c -0.0707,-8e-5 -0.14138,-4.7e-5 -0.21239,5.16e-4 -0.2932,0.0023 -0.58879,0.01042 -0.88677,0.02377 -3.51064,0.157316 -5.9238,0.852337 -8.93019,2.572452 -1.66268,0.95131 -4.20339,3.266495 -5.35316,4.877739 -2.83125,3.967627 -4.11654,9.444005 -3.36517,14.341243 0.35389,2.306549 1.24943,5.082256 2.08876,6.476091 0.46257,0.768168 0.53924,1.000498 0.30076,0.908988 -0.17618,-0.06761 -0.84309,-0.17184 -1.48208,-0.23151 -0.63899,-0.05967 -1.16169,-0.165174 -1.16169,-0.234094 0,-0.06891 -0.30112,-0.476887 -0.66921,-0.906922 -1.20008,-1.402007 -3.03366,-2.062007 -5.73866,-2.065507 -2.85432,-0.0037 -5.42963,0.922876 -6.43785,2.316655 -0.50572,0.699115 -0.88468,0.9775 -1.37201,1.00769 -0.11577,0.0072 0.0639,-0.508968 0.39894,-1.1467 0.85497,-1.62715 1.69544,-4.223856 1.95647,-6.045109 0.33772,-2.356323 0.13617,-6.021027 -0.45579,-8.286316 -1.54899,-5.927617 -5.79045,-10.420581 -11.521771,-12.204938 -9.783416,-3.045908 -20.147063,2.689357 -22.999112,12.727906 -1.275367,4.489013 -0.998837,9.879381 0.703317,13.709757 2.021776,4.549642 6.083754,7.985592 11.183812,9.459888 1.295891,0.374604 1.860273,0.422478 4.89686,0.415478 3.20801,-0.0073 3.540485,-0.04132 5.090645,-0.518831 0.912155,-0.280981 2.150461,-0.750238 2.751254,-1.043347 0.68721,-0.335271 1.056228,-0.439399 0.995288,-0.280603 -1.369769,3.569556 0.397387,6.947131 4.240047,8.104415 0.71562,0.215516 1.35176,0.468883 1.41387,0.563273 0.0621,0.09439 0.16546,0.857943 0.22996,1.697054 0.37727,4.908075 2.12954,7.593599 5.26583,8.070825 1.107,0.168443 2.30038,0.06967 3.41995,-0.28267 0.77686,-0.244489 0.97494,-0.240552 1.93218,0.03772 0.74701,0.21712 1.49603,0.285466 2.49958,0.227376 3.87018,-0.224044 5.59884,-2.670563 6.02599,-8.528162 l 0.1173,-1.60972 0.77308,-0.12299 c 1.21076,-0.192672 2.62596,-0.913714 3.62252,-1.845883 1.56361,-1.462595 2.14307,-3.47131 1.63349,-5.663737 -0.15399,-0.662638 -0.25756,-1.227123 -0.22996,-1.254703 0.0276,-0.02758 0.5009,0.154747 1.05213,0.40566 0.55123,0.25091 1.75385,0.686932 2.67218,0.968933 1.5866,0.487203 1.85427,0.513147 5.38004,0.513147 3.51834,0 3.79676,-0.0266 5.38003,-0.510047 5.43285,-1.658891 9.14716,-4.743915 11.4303,-9.493994 1.3932,-2.898573 1.73661,-4.556454 1.72961,-8.347294 -0.005,-2.655122 -0.0721,-3.408551 -0.42323,-4.764567 -2.28885,-8.839682 -8.96306,-14.028829 -17.94515,-14.038936 z m -0.14934,2.674255 c 0.11362,-3.2e-4 0.22985,-1.41e-4 0.34881,0 2.95761,0.0035 3.25135,0.03662 4.72013,0.526066 5.15991,1.719479 8.66178,5.276533 10.28153,10.443807 0.57747,1.842356 0.848,4.736402 0.65061,6.96495 -0.58246,6.576176 -5.17647,11.920778 -11.76207,13.683919 -3.18418,0.852502 -7.17893,0.611483 -10.50892,-0.633553 -2.13211,-0.797183 -3.43886,-1.602975 -5.09683,-3.143477 -3.39583,-3.155226 -5.05626,-7.434575 -4.83278,-12.454537 0.12506,-2.809179 0.45863,-4.10354 1.74563,-6.76858 0.94671,-1.960396 1.17919,-2.280419 2.9099,-4.011124 1.73015,-1.730141 2.05135,-1.963383 4.01112,-2.910417 2.97966,-1.439887 4.01038,-1.687116 7.53287,-1.697054 z m -48.133482,0.502295 c 4.413213,-0.01562 8.817452,1.961899 11.517122,5.281331 2.48683,3.057716 3.51892,6.082812 3.52951,10.345622 0.007,2.712762 -0.25634,4.202267 -1.15136,6.523116 -1.76882,4.586721 -5.970243,8.290762 -10.772981,9.497095 -2.729306,0.685535 -5.987138,0.626185 -8.576222,-0.156063 -2.44398,-0.738411 -4.141211,-1.759359 -6.003767,-3.612183 -1.46666,-1.458992 -1.811044,-1.930484 -2.64635,-3.625101 -1.346005,-2.730703 -1.734528,-4.343793 -1.765268,-7.328235 -0.01818,-1.76508 0.06752,-2.809683 0.319361,-3.895886 1.657594,-7.149429 6.746974,-11.954297 13.662733,-12.898955 0.625876,-0.08549 1.256764,-0.12851 1.887222,-0.130741 z m 29.995062,28.539343 c 0.1475,-0.0027 0.35354,0.0222 0.65577,0.06046 1.76845,0.223853 2.6745,0.641334 3.92018,1.806608 1.46219,1.36782 2.13062,2.623759 2.13062,4.00389 0,1.211269 -0.30958,1.847775 -1.31982,2.712496 -1.65473,1.416386 -4.07652,1.627143 -8.73435,0.761194 -2.97037,-0.552231 -3.85483,-0.538032 -6.54998,0.104903 -2.1909,0.522641 -5.21951,0.646054 -6.58616,0.2682 -1.26644,-0.350141 -2.36931,-1.099634 -2.86339,-1.945617 -0.52644,-0.901373 -0.49854,-2.429367 0.0646,-3.51038 0.62441,-1.198654 2.09296,-2.663672 3.21324,-3.206006 1.61221,-0.780482 1.73119,-0.789662 1.99471,-0.153479 0.50317,1.214772 2.2145,2.331247 4.23798,2.765206 3.84178,0.823913 8.51324,-0.77057 9.35808,-3.194121 0.1128,-0.323573 0.16818,-0.449698 0.41858,-0.470255 0.0188,-0.0015 0.0389,-0.0027 0.06,-0.0031 z m -5.53816,11.531079 1.43815,0.337447 c 0.79079,0.185352 2.21344,0.435746 3.16156,0.556556 l 1.72393,0.219624 -0.11007,0.857313 c -0.57129,4.446915 -1.064,5.660759 -2.5771,6.347932 -0.84339,0.383018 -2.22973,0.451674 -2.80137,0.13901 -0.80155,-0.438415 -0.8351,-0.622632 -0.8351,-4.620907 z m -2.18384,0.137976 c 0.0788,0 0.14314,1.715258 0.14314,3.811654 0,3.79955 -0.001,3.812998 -0.45527,4.266923 -0.3731,0.373104 -0.63269,0.453501 -1.43764,0.443901 -2.45516,-0.02939 -3.37176,-1.275053 -3.94084,-5.355229 -0.15856,-1.136783 -0.28836,-2.10533 -0.28836,-2.15284 0,-0.04751 0.31293,-0.08711 0.69557,-0.08785 0.38263,-8.09e-4 1.69599,-0.209773 2.91817,-0.464054 1.22217,-0.254284 2.28643,-0.462505 2.36523,-0.462505 z" /><path
       id="path408"
       style="fill:#284e30;fill-opacity:1;stroke-width:0.185522"
       d="m 43.525943,78.352696 c -0.19006,0.0045 -0.39171,0.08628 -0.59273,0.268201 -0.51237,0.463717 -0.50758,1.982191 0.008,2.497522 0.48014,0.480068 0.66195,0.467699 1.21388,-0.08423 0.93761,-0.937602 0.28683,-2.703337 -0.6289,-2.681491 z m 10.28,3.507797 c -0.52633,0 -0.8084,0.316147 -0.96066,1.077453 -0.14105,0.705231 0.016,1.395776 0.40566,1.785421 0.71338,0.713384 1.56321,0.01433 1.56321,-1.28571 0,-0.911569 -0.42542,-1.577164 -1.00821,-1.577164 z m -10.26501,7.606254 c -0.79546,0 -1.27883,1.822506 -0.71262,2.686657 0.18769,0.286448 0.48036,0.467672 0.75551,0.467672 1.02315,0 1.41543,-1.854145 0.57102,-2.698543 -0.25045,-0.250455 -0.52674,-0.455786 -0.61391,-0.455786 z m 11.6763,2.257743 c -0.19615,-0.003 -0.40853,0.08446 -0.62012,0.275952 -0.44433,0.402108 -0.47686,2.126599 -0.0481,2.5554 0.71365,0.71365 1.56373,0.01458 1.56373,-1.28571 0,-0.942332 -0.39431,-1.538023 -0.89555,-1.545642 z m -9.70949,7.404199 c -0.22903,0.005 -0.48081,0.125785 -0.73329,0.378272 -0.32692,0.32691 -0.37782,0.549189 -0.30283,1.329629 0.0591,0.615 0.20662,1.02226 0.4284,1.18443 0.85008,0.6216 1.5658,0.0688 1.5658,-1.20923 0,-1.059474 -0.41565,-1.694908 -0.95808,-1.683101 z m 11.92951,2.505791 c -0.1963,0.002 -0.41073,0.0865 -0.62942,0.26355 -0.54914,0.44466 -0.58565,1.81417 -0.0636,2.39106 0.71705,0.79234 1.61034,0.21821 1.6278,-1.04644 0.0138,-0.99768 -0.39211,-1.61468 -0.93482,-1.60817 z m -8.73023,7.31221 c -1.1389,0 -1.41208,2.55121 -0.31677,2.95848 0.81062,0.30141 1.4149,-0.25318 1.4149,-1.29915 0,-0.77201 -0.58733,-1.65933 -1.09813,-1.65933 z m 11.995659,1.52807 c -0.533119,0.0167 -1.065049,0.62121 -1.065049,1.45831 0,0.47459 0.47721,1.40395 0.784445,1.52756 0.460276,0.18519 0.682124,0.11943 0.967384,-0.28784 0.398454,-0.56888 0.371156,-1.85724 -0.05064,-2.37815 -0.185607,-0.22921 -0.411042,-0.32695 -0.636137,-0.31988 z m -5.919019,6.45077 c -0.30011,0.007 -0.59408,0.15028 -0.72606,0.39688 -0.25254,0.47188 -0.12823,1.89637 0.19999,2.29185 0.30435,0.36677 0.90764,0.35394 1.33016,-0.0284 0.55683,-0.50392 0.37568,-2.07462 -0.29094,-2.51974 -0.15046,-0.10046 -0.33309,-0.1449 -0.51315,-0.14056 z" /><path
       id="path378"
       style="fill:#000000;stroke-width:0.185522"
       d="m 135.62213,56.27239 c -0.66907,-0.0066 -1.35149,0.110183 -2.02106,0.360702 -4.59731,1.720075 -4.89487,9.252096 -0.45423,11.497489 1.0786,0.545394 1.27218,0.583091 2.64789,0.512631 1.01904,-0.05219 1.71671,-0.19667 2.22622,-0.460437 3.03169,-1.569436 4.24192,-5.715447 2.56677,-8.793262 -1.07005,-1.966044 -2.95835,-3.097293 -4.96559,-3.117123 z m -39.734514,0.994772 c -1.30625,-0.0085 -1.602699,0.05583 -2.471167,0.536918 -1.201459,0.665554 -1.974027,1.516651 -2.612244,2.877344 -0.414647,0.884029 -0.481957,1.276647 -0.479557,2.791044 0.0026,1.648814 0.04319,1.837919 0.633036,2.93057 0.722508,1.338397 1.697611,2.192695 3.056661,2.67839 2.39393,0.85554 5.341295,-0.462737 6.497275,-2.906283 0.99304,-2.099103 0.98469,-4.41117 -0.0227,-6.26215 -0.976749,-1.794614 -2.432488,-2.631673 -4.601267,-2.645833 z m 41.951954,2.701644 c 0.48382,0 1.387,0.959476 1.387,1.473295 0,0.182485 -0.173,0.551769 -0.38448,0.820621 -0.83998,1.067861 -2.57748,0.254826 -2.31924,-1.085205 0.12789,-0.663651 0.72176,-1.208711 1.31672,-1.208711 z m -40.193922,1.135331 c 0.27182,-0.0044 0.552534,0.131055 0.871782,0.40566 0.576434,0.495825 0.647304,1.192945 0.191719,1.888257 -0.229593,0.3504 -0.46647,0.466638 -0.950846,0.466638 -1.295164,0 -1.856621,-1.402098 -0.931727,-2.32699 0.284449,-0.284452 0.547252,-0.429132 0.819072,-0.433565 z" /><path
       id="path302"
       style="fill:#000000;stroke-width:0.185522"
       d="m 118.24335,27.552696 c -13.9246,0.03532 -26.902664,3.647595 -35.664488,10.242269 l -1.44125,1.085205 -1.05627,-1.021126 c -3.671647,-3.548341 -7.480064,-5.14713 -10.949714,-4.597135 -5.128677,0.812967 -8.419244,5.705769 -7.372164,10.961604 0.72656,3.647022 3.366537,7.191782 7.061584,9.482626 l 0.92759,0.575159 -0.68213,2.055171 c -2.303357,6.941064 -3.266087,16.874295 -2.770367,28.585336 0.2012,4.753193 0.84589,13.805472 1.04696,14.702461 0.0515,0.229583 0.0294,0.417604 -0.0491,0.417544 -0.0785,-6e-5 -1.04383,-0.292506 -2.14509,-0.649571 -1.10124,-0.357068 -2.11722,-0.649056 -2.257737,-0.649056 -0.49121,0 -1.48038,-5.641643 -2.22829,-12.708268 -0.7458,-7.046776 -1.29982,-9.668818 -2.57348,-12.182719 -0.842557,-1.662994 -1.865657,-2.934301 -3.056667,-3.798218 -1.12,-0.812411 -1.13338,-0.90074 -0.50229,-3.217891 0.80023,-2.938207 -0.41693,-5.460727 -3.011197,-6.24148 -1.76408,-0.530906 -3.50916,-0.116298 -4.871017,1.157552 -1.33413,1.247919 -1.7407,2.329224 -1.7756,4.723743 -0.0157,1.078765 -0.12245,2.137444 -0.23772,2.352828 -0.11527,0.215386 -0.71602,0.78923 -1.3348,1.275374 -2.880277,2.262873 -4.708367,6.161945 -5.382107,11.478369 -0.49984,3.944263 -0.20036,11.275918 0.6749,16.511137 1.22926,7.35263 3.904987,14.55594 7.029027,18.92339 4.430877,6.19434 10.085294,8.81548 15.006331,6.95616 3.709667,-1.40154 5.623217,-4.29208 5.859067,-8.85217 l 0.10749,-2.08204 0.45992,0.22996 c 0.52544,0.26285 0.51846,-0.20707 0.0801,5.41775 -0.41399,5.31215 -0.54022,12.83033 -0.27595,16.41864 0.81925,11.12391 4.008327,19.40594 9.910504,25.73745 1.06572,1.14324 3.993747,3.70668 4.659667,4.07934 0.2415,0.13516 -0.0184,0.48502 -1.42576,1.92184 -0.94642,0.96627 -1.997307,2.22676 -2.335257,2.80086 -2.79064,4.74143 -1.64835,8.91458 2.787427,10.18285 h 0.001 c 2.31973,0.66317 4.664067,0.41352 7.103447,-0.75655 2.644727,-1.26857 5.266347,-3.82696 6.681757,-6.52053 0.504347,-0.95977 0.752957,-1.26121 0.984957,-1.19321 3.15245,0.92382 8.613937,1.87932 14.038937,2.45567 4.2187,0.44807 14.48221,0.45174 18.42936,0.007 3.62357,-0.40856 8.68099,-1.26675 11.06856,-1.87843 1.02019,-0.26136 1.87729,-0.40797 1.90479,-0.32557 0.17367,0.52103 1.58538,2.67249 2.40864,3.67058 1.10555,1.34031 3.12888,2.92585 4.77749,3.74396 4.94294,2.45294 10.94922,0.80179 11.78842,-3.24063 0.58798,-2.83226 -0.71228,-5.96667 -3.73414,-8.99997 l -1.61076,-1.61695 1.41594,-1.05937 c 0.77901,-0.58282 2.21045,-1.85925 3.18068,-2.836 6.30139,-6.3437 9.74237,-14.31377 11.05978,-25.61549 0.24757,-2.12347 0.3371,-4.28783 0.3421,-8.27547 l 0.006,-5.40019 1.11312,1.00925 c 2.05373,1.8621 4.47622,2.84664 6.2699,2.54816 3.33614,-0.55516 5.32605,-3.00478 4.81675,-5.92935 -0.42811,-2.45856 -1.58895,-4.518 -4.27002,-7.5737 -1.77971,-2.02849 -3.90928,-3.93107 -6.86159,-6.13141 l -2.2717,-1.69292 10e-4,-2.31923 c 8.4e-4,-1.27546 0.0848,-3.738438 0.18656,-5.473055 0.96867,-16.509128 0.96594,-20.511559 -0.0181,-29.285034 -0.60053,-5.354245 -1.88063,-10.900923 -3.21014,-13.907162 l -0.45682,-1.033012 0.9896,-0.763777 c 1.36095,-1.049955 2.52566,-2.330724 3.52847,-3.8809 1.08614,-1.678983 1.68527,-3.285942 1.97662,-5.300969 0.20229,-1.39925 0.19167,-1.804322 -0.0811,-3.12384 -0.4186,-2.024735 -1.24506,-3.597157 -2.53886,-4.83123 -2.51095,-2.395016 -5.9782,-3.214639 -9.35653,-2.211751 -1.96681,0.583883 -4.48958,2.100428 -6.10453,3.67006 l -0.88832,0.863513 -1.51567,-0.97255 c -5.02571,-3.223842 -11.74817,-5.639311 -19.24842,-6.915857 -4.7309,-0.805202 -9.47754,-1.190512 -14.11903,-1.17874 z m 0.46043,3.095935 c 4.2083,0.0055 8.44788,0.346133 12.54549,1.037663 12.91182,2.179039 22.5252,7.357347 28.06183,15.115873 2.53974,3.558922 4.86006,8.982012 5.96811,13.948503 1.71867,7.703752 2.12064,17.511004 1.28674,31.406352 -0.44832,7.470325 -0.39784,13.010118 0.18552,20.314518 0.71717,8.97959 0.83309,11.34881 0.75189,15.39854 -0.30537,15.23033 -3.6387,24.75809 -11.17864,31.95309 -6.36122,6.07034 -14.24424,9.21434 -27.39469,10.92647 -2.41633,0.3146 -4.1756,0.3961 -9.46143,0.4377 -6.9828,0.0549 -7.00547,0.054 -11.0386,-0.37673 -9.754427,-1.04156 -17.972894,-3.39419 -23.187731,-6.63732 -8.854214,-5.50638 -13.782921,-14.10137 -15.338601,-26.74875 -0.47684,-3.8766 -0.43086,-12.77276 0.0987,-19.10891 0.76514,-9.1549 0.7373,-12.879 -0.16795,-22.540741 -1.692807,-18.067395 -0.87223,-31.592035 2.42001,-39.900407 3.660217,-9.237006 10.748754,-16.194292 20.963068,-20.575488 7.120244,-3.054068 16.228144,-4.662547 25.486284,-4.650363 z m 44.21589,4.114478 c 0.17019,-0.0019 0.34164,0.0018 0.5147,0.01085 2.35487,0.123602 4.03491,1.215868 5.12267,3.331063 0.51771,1.006702 0.68779,3.271761 0.35864,4.769735 -0.29949,1.363027 -1.27838,3.223169 -2.32751,4.422469 -0.46012,0.52598 -1.1659,1.21757 -1.56837,1.53634 l -0.73174,0.579293 -0.46974,-0.927075 c -0.25833,-0.509791 -0.93699,-1.612552 -1.50792,-2.451014 -0.90331,-1.326691 -0.99813,-1.547106 -0.73018,-1.697054 0.16933,-0.09476 0.74009,-0.523403 1.26814,-0.952913 1.17167,-0.953027 1.35444,-1.6831 0.60874,-2.428792 -0.6623,-0.662366 -1.20594,-0.585181 -2.63808,0.375171 l -1.25625,0.842325 -1.85984,-1.815909 c -1.02304,-0.998933 -1.8983,-1.838423 -1.9451,-1.865003 -0.1873,-0.106278 1.07253,-1.23491 2.26653,-2.030367 1.72213,-1.147309 3.25012,-1.68121 4.89531,-1.699121 z m -93.100232,1.469678 c 0.2296,-4.56e-4 0.49766,0.01004 0.82941,0.02842 2.41789,0.134005 4.410667,1.122131 6.984587,3.462838 l 1.205607,1.096573 -1.212327,1.272274 c -0.66699,0.699628 -1.43096,1.556451 -1.69757,1.904277 l -0.48473,0.632519 -0.89968,-0.65629 c -1.093237,-0.796904 -2.713947,-1.628842 -3.171907,-1.628842 -0.67812,0 -1.16013,0.534926 -1.16013,1.28726 0,0.591819 0.12232,0.820761 0.73535,1.374593 0.40448,0.365428 1.17682,0.886092 1.71618,1.157036 0.53935,0.270938 1.006997,0.515713 1.039207,0.544153 0.0322,0.02844 -0.531677,1.031096 -1.252637,2.228287 -0.72095,1.197197 -1.31051,2.249272 -1.31051,2.337842 0,0.574174 -1.67461,-0.539542 -3.350187,-2.228288 -1.75652,-1.770321 -2.7631,-3.478933 -3.15123,-5.34851 -0.60747,-2.926189 0.82912,-5.839662 3.47783,-7.052283 0.671797,-0.307559 1.013947,-0.410493 1.702737,-0.411861 z M 49.95346,63.311237 c 0.86946,-0.0039 1.61464,0.43943 1.90118,1.131197 0.21597,0.521393 0.19559,0.791589 -0.16433,2.188497 -0.43853,1.70199 -0.5103,2.859056 -0.22376,3.6127 0.0975,0.256524 0.57612,0.825655 1.063507,1.264522 3.66343,3.298785 4.46654,5.52551 5.440497,15.083317 0.72934,7.157335 1.36828,10.437717 3.27111,16.78967 2.450527,8.18023 2.900887,10.50256 2.480987,12.80128 -0.32274,1.76683 -0.856407,2.84782 -1.876887,3.80236 -1.02564,0.95936 -2.07141,1.46467 -3.622,1.75131 -0.586277,0.10843 -1.071687,0.1877 -1.078487,0.1757 -0.007,-0.012 -0.38781,-0.0871 -0.84697,-0.1664 -6.424087,-1.10894 -12.054064,-9.64477 -14.626511,-22.176418 -1.53213,-7.463741 -1.76167,-15.737365 -0.57154,-20.576521 0.751857,-3.057145 2.056537,-5.161521 4.484477,-7.233151 1.813337,-1.54722 2.055127,-2.117801 2.014867,-4.752681 -0.027,-1.76715 0.0119,-2.022631 0.39739,-2.594674 0.50746,-0.753022 1.11931,-1.097008 1.95647,-1.100708 z m 13.703051,38.612633 c 0.27043,-0.013 1.83718,0.53627 3.098,1.09399 l 0.82114,0.36328 0.13229,1.67173 c 0.0727,0.91951 0.0729,2.50564 0,3.52485 -0.1458,2.03704 -0.17501,2.07123 -1.3286,1.5658 -0.61513,-0.26952 -0.66581,-0.37632 -1.26556,-2.68098 -0.1726,-0.66324 -0.59903,-2.15831 -0.94826,-3.32227 -0.34923,-1.16398 -0.59471,-2.15655 -0.54519,-2.20607 0.006,-0.006 0.0181,-0.01 0.0362,-0.0103 z m 105.845179,6.28075 c 0.30317,3.2e-4 3.23473,2.37115 4.95783,4.00957 3.16121,3.00578 5.21069,6.0872 5.21106,7.8357 1.9e-4,1.03004 -0.41645,1.90623 -1.09813,2.3089 h -5.2e-4 c -0.81994,0.48437 -2.31751,0.40405 -3.50004,-0.1881 -0.53937,-0.27009 -1.92535,-1.3515 -3.07992,-2.40295 l -2.09909,-1.91203 -0.13953,-2.73834 c -0.0767,-1.50617 -0.19341,-3.67755 -0.25941,-4.82554 -0.0657,-1.148 -0.0624,-2.08728 0.008,-2.08721 z m -17.45474,58.78452 0.77876,0.68627 c 3.15184,2.77613 4.86496,6.2568 3.95015,8.02586 -0.26577,0.51394 -1.11555,1.1467 -1.53996,1.1467 -0.0822,0 -0.52295,-0.6338 -0.97978,-1.4087 -0.45682,-0.77491 -1.15842,-1.70508 -1.55908,-2.06705 -0.69399,-0.62698 -0.7404,-0.64202 -0.98237,-0.3111 -0.33231,0.45446 -0.18623,1.13338 0.60616,2.81068 0.34888,0.73853 0.63459,1.38534 0.63459,1.43764 0,0.17199 -1.37534,0.0663 -2.23914,-0.17208 -1.45693,-0.40204 -3.37551,-1.54072 -4.58679,-2.72231 -1.09498,-1.06816 -2.94782,-3.44337 -2.79725,-3.58583 0.0378,-0.0358 0.73658,-0.28872 1.55288,-0.56224 0.8163,-0.27351 2.76192,-1.12321 4.32325,-1.88774 z m -67.977218,0.0398 2.023127,1.00924 c 1.11251,0.55502 2.89892,1.34118 3.970307,1.74718 1.38244,0.52386 1.94057,0.82283 1.92184,1.02888 -0.0508,0.55865 -1.47012,2.38237 -2.905247,3.73311 -0.93796,0.88281 -1.92082,1.5964 -2.79156,2.02675 -1.54817,0.76515 -3.460257,1.09373 -3.460257,0.59479 0,-0.15816 0.25053,-0.81709 0.55656,-1.46399 0.927477,-1.96052 0.62708,-3.40235 -0.49144,-2.35903 -0.25998,0.24249 -0.86437,1.10286 -1.34308,1.91203 -0.4787,0.80916 -0.97237,1.50559 -1.09709,1.54719 -0.12471,0.0416 -0.51799,-0.21569 -0.87384,-0.57154 -0.58169,-0.5817 -0.64699,-0.74977 -0.64699,-1.6645 0,-1.91491 1.99462,-5.05034 4.44986,-6.99492 z" /></g></svg>
