<?xml version="1.0" encoding="UTF-8" standalone="no"?>
<!-- Created with Inkscape (http://www.inkscape.org/) -->

<svg
   width="508"
   height="196.85001"
   viewBox="0 0 508 196.85001"
   version="1.1"
   id="svg1"
   xml:space="preserve"
   inkscape:version="1.3 (0e150ed6c4, 2023-07-21)"
   sodipodi:docname="Logo.svg"
   xmlns:inkscape="http://www.inkscape.org/namespaces/inkscape"
   xmlns:sodipodi="http://sodipodi.sourceforge.net/DTD/sodipodi-0.dtd"
   xmlns="http://www.w3.org/2000/svg"
   xmlns:svg="http://www.w3.org/2000/svg"><sodipodi:namedview
     id="namedview1"
     pagecolor="#ffffff"
     bordercolor="#666666"
     borderopacity="1.0"
     inkscape:showpageshadow="2"
     inkscape:pageopacity="0.0"
     inkscape:pagecheckerboard="0"
     inkscape:deskcolor="#d1d1d1"
     inkscape:document-units="px"
     inkscape:zoom="2.1362654"
     inkscape:cx="193.56209"
     inkscape:cy="199.17937"
     inkscape:window-width="2560"
     inkscape:window-height="1377"
     inkscape:window-x="-8"
     inkscape:window-y="-8"
     inkscape:window-maximized="1"
     inkscape:current-layer="layer1" /><defs
     id="defs1" /><g
     inkscape:label="Ebene 1"
     inkscape:groupmode="layer"
     id="layer1"
     transform="translate(116.89449,-28.772245)"><path
       style="fill:#00aaa7;fill-opacity:1"
       d="m -62.479061,151.55485 h 74.146444 c 4.650811,0 10.186558,-0.0219 11.027184,-0.48059 0.484407,-0.26433 1.039347,-0.86019 1.2332,-1.32415 0.193854,-0.46396 0.846552,-3.64097 1.450441,-7.06003 3.372404,-19.09367 7.865752,-40.87744 8.820406,-42.761353 0.990082,-1.95383 1.879185,-2.89681 3.436214,-3.64444 2.169119,-1.041528 4.900498,-1.291388 12.545583,-1.147638 7.233847,0.13602 8.301101,0.29329 9.831526,1.448698 1.759752,1.32855 1.860463,1.7681 5.714078,24.939293 4.017147,24.15449 3.815563,23.01876 4.085642,23.01876 0.10917,0 0.892219,-1.27993 1.740108,-2.84428 0.847889,-1.56434 3.588468,-6.5352 6.090176,-11.04635 4.990205,-8.99847 7.637668,-13.93854 11.768944,-21.96042 4.40265,-8.54882 6.52446,-11.401573 9.528359,-12.810771 l 1.455826,-0.68297 h 8.20209 c 9.04991,0 10.23745,0.1486 11.85716,1.483698 1.74895,1.44163 1.87554,3.14166 0.69591,9.345883 -3.96229,20.83959 -9.83607,51.04573 -10.10874,51.98453 -0.20471,0.70479 -0.63221,1.38522 -1.08053,1.71979 -0.70076,0.52296 -1.06787,0.55359 -6.63476,0.55359 -6.506505,0 -6.767575,-0.0609 -6.767575,-1.57861 0,-0.4688 0.354399,-2.60217 0.787549,-4.74081 0.72916,-3.60012 7.149936,-41.02693 7.149936,-41.67709 0,-0.64071 -0.44005,-0.20708 -1.25283,1.23455 -0.47078,0.83502 -1.59272,2.76837 -2.49322,4.29634 -0.900486,1.52797 -2.197626,3.73062 -2.882536,4.89479 -0.68491,1.16417 -2.053789,3.48589 -3.041949,5.15938 -2.23519,3.78535 -3.905455,6.61979 -5.612865,9.525 -0.726951,1.23692 -2.129036,3.61817 -3.115744,5.29166 -0.986707,1.67349 -2.323903,3.99521 -2.971545,5.15938 -1.937744,3.48318 -4.491277,7.23477 -5.821809,8.55327 -2.677769,2.65354 -6.111103,3.84166 -11.172076,3.86615 -6.180784,0.0299 -8.770177,-1.23329 -10.177708,-4.96501 -0.34563,-0.91636 -8.607708,-42.58449 -8.607708,-43.41126 0,-1.50978 -1.202844,3.55511 -5.428934,22.85997 -2.723726,12.44203 -5.146546,23.02814 -5.384044,23.52468 -0.237498,0.49655 -0.767954,1.15139 -1.178792,1.45521 l -0.746978,0.5524 -9.595728,0.0689 -89.595727,0.0689 z m 199.386631,8.58134 c -7.0164,-0.54862 -11.23547,-2.52974 -13.02705,-6.11702 -0.81861,-1.6391 -1.16784,-4.42947 -0.87445,-6.98683 0.57641,-5.02434 2.80696,-16.7207 4.2485,-22.27788 1.77716,-6.85106 4.95785,-11.09171 10.18217,-13.57539 2.92395,-1.39006 5.43107,-1.83733 11.77396,-2.10048 11.97748,-0.4969 37.18567,-0.16095 39.46983,0.52602 1.85741,0.55863 3.45191,1.87806 4.31276,3.56879 0.75368,1.48025 0.79828,1.73906 0.77512,4.49791 -0.0203,2.42171 -0.2612,4.08633 -1.39462,9.63804 -0.75352,3.69091 -1.6207,7.29341 -1.92706,8.00557 -0.64901,1.50866 -1.91366,2.71512 -3.32724,3.17414 -0.75197,0.24419 -6.46943,0.33589 -23.09213,0.3704 -12.15099,0.0252 -22.46471,0.12998 -22.91937,0.23279 -1.51358,0.34225 -2.06948,1.25448 -2.17456,3.56842 -0.0865,1.90462 -0.0436,2.10423 0.62281,2.89617 0.39363,0.46781 0.93778,0.96942 1.20921,1.11468 1.32988,0.71174 4.08116,0.81569 23.43926,0.8856 18.25349,0.0659 20.21658,0.11418 20.82358,0.5119 1.01622,0.66585 1.07852,1.75434 0.31216,5.4534 -1.20285,5.8059 -1.40397,6.22452 -3.18913,6.63814 -1.27589,0.29562 -41.4279,0.274 -45.24375,-0.0244 z m 38.88167,-31.04882 c 1.51932,-0.63481 1.84117,-1.43219 1.85341,-4.59185 0.0161,-4.16432 1.58018,-3.7843 -15.51314,-3.7693 -15.39401,0.0135 -15.0944,-0.0131 -17.28243,1.53251 -1.3443,0.94959 -2.61269,3.22209 -2.93049,5.25039 -0.3204,2.04491 -1.1211,1.95303 17.01877,1.95303 13.16718,0 16.11373,-0.0655 16.85388,-0.37478 z m 21.04646,31.10221 c -0.56069,-0.16051 -0.67331,-0.36912 -0.73922,-1.36933 -0.0827,-1.25482 0.20323,-2.68578 5.86593,-29.3581 1.96184,-9.24058 4.23591,-20.06231 5.05349,-24.0483 0.81758,-3.98599 1.64816,-7.557863 1.84572,-7.937503 0.58107,-1.11654 1.51883,-1.829878 2.79074,-2.122848 1.46412,-0.33724 10.59392,-0.36417 12.0111,-0.0354 1.22265,0.28362 1.4732,0.60958 1.4786,1.923658 0.004,0.96448 -2.17183,11.827703 -3.71485,18.547273 -0.42846,1.86587 -0.77901,3.67738 -0.77901,4.02559 0,0.90373 0.89535,1.28245 2.96525,1.25423 1.95388,-0.0266 4.07337,-0.81845 5.59071,-2.08862 0.92553,-0.77476 9.54808,-9.85856 16.146,-17.00969 2.3369,-2.532863 4.77253,-4.937263 5.41252,-5.343123 1.93818,-1.229158 4.10765,-1.561078 10.20334,-1.561078 6.64192,0 7.29402,0.17873 7.30313,2.001728 0.004,0.71796 -1.53791,2.37025 -13.42356,14.388463 -7.38518,7.46754 -13.57221,13.82958 -13.74895,14.13785 -0.62404,1.08844 -0.38598,2.11796 1.02194,4.41943 4.43649,7.25215 7.07193,11.736 11.20502,19.06384 2.54806,4.51761 4.70482,8.50068 4.79281,8.85127 0.27213,1.08423 -0.0889,1.88311 -0.9936,2.19848 -1.05804,0.36884 -14.27169,0.3922 -15.58427,0.0275 -0.51577,-0.14328 -1.3002,-0.64863 -1.74318,-1.123 -0.90709,-0.97138 -2.95087,-4.4201 -3.8037,-6.41845 -0.70487,-1.65165 -2.79584,-5.83595 -3.96665,-7.93778 -0.48636,-0.87313 -1.35522,-2.48047 -1.93078,-3.57188 -2.54322,-4.82254 -3.45502,-5.96088 -5.47728,-6.83809 -3.90337,-1.6932 -7.23662,-0.46839 -7.90023,2.90295 -3.18601,16.18582 -4.11455,20.41982 -4.69785,21.42138 -0.92835,1.59402 -1.38982,1.69086 -8.30401,1.74247 -3.41974,0.0255 -6.51536,-0.0388 -6.87916,-0.14294 z m 89.16458,0.076 c -0.80036,-0.0517 -3.83646,-0.22599 -6.74687,-0.38729 -8.17441,-0.45303 -10.64006,-1.16365 -12.94932,-3.7321 -2.31819,-2.57839 -2.82096,-6.28316 -1.72671,-12.72365 1.67615,-9.86535 4.07068,-19.92528 5.49568,-23.08849 1.36777,-3.03616 2.02438,-4.01215 4.031,-5.99168 2.97437,-2.93421 6.98337,-4.57177 12.867,-5.25577 1.83805,-0.21369 8.33836,-0.27031 21.79252,-0.18984 21.04195,0.12586 21.23995,0.14003 24.77693,1.77344 4.2403,1.95822 6.21772,5.81374 5.81448,11.3369 -0.15626,2.14022 -1.5995,10.09449 -3.22492,17.77383 -1.60856,7.59969 -3.25069,11.4619 -6.22955,14.65164 -1.61219,1.72631 -2.27969,2.22081 -4.31668,3.1979 -2.97862,1.42876 -5.22797,1.93772 -10.04135,2.27204 -3.72869,0.25898 -26.77027,0.54216 -29.54221,0.36307 z m 28.75586,-12.96919 c 2.79265,-0.76618 4.75021,-3.02318 5.66756,-6.5345 1.20963,-4.63004 2.92534,-13.85012 2.82111,-15.16042 -0.13389,-1.68323 -0.96692,-2.91018 -2.42565,-3.57265 -1.01689,-0.46182 -2.03418,-0.49289 -16.31706,-0.49833 -17.19677,-0.007 -16.89779,-0.0375 -18.88634,1.95374 -1.40426,1.40615 -1.89222,2.48131 -2.81961,6.2126 -2.29957,9.25222 -2.95354,14.51225 -1.98509,15.96642 1.42792,2.14406 2.64392,2.27293 20.00589,2.12007 9.77012,-0.086 12.873,-0.19441 13.93919,-0.48693 z"
       id="path1"
       sodipodi:nodetypes="csssssssssssssscsssssssssssssssssssssssccccssssssssssssssssssssssssssssssssssssssssssssscsssssssssssssssssssssssssssssssssssscsssss"
       inkscape:export-filename="JustLogo.png"
       inkscape:export-xdpi="90"
       inkscape:export-ydpi="90" /></g></svg>
